<?xml version="1.0" encoding="UTF-8" standalone="no"?>
<!DOCTYPE svg PUBLIC "-//W3C//DTD SVG 1.1//EN" "http://www.w3.org/Graphics/SVG/1.1/DTD/svg11.dtd">
<svg width="100%" height="100%" viewBox="0 0 2041 714" version="1.1" xmlns="http://www.w3.org/2000/svg" xmlns:xlink="http://www.w3.org/1999/xlink" xml:space="preserve" xmlns:serif="http://www.serif.com/" style="fill-rule:evenodd;clip-rule:evenodd;stroke-linejoin:round;stroke-miterlimit:2;">
    <g id="Background" transform="matrix(1.993164,0,0,1.993164,0,0)">
        <path d="M1.5,0L1023.999,0C1024.239,0.144 1023.999,0.217 1023.999,3.5L1023.999,357.999C1023.855,358.239 1023.782,357.999 1020.5,357.999L0,357.999C-0.429,357.742 0,357 0,356.5L0,0C0.257,-0.429 1.243,0.429 1.5,0Z"/>
        <path d="M922.939,209.5C922.932,210.411 923.555,217.864 919.499,228.5C912.258,247.486 893.393,259.081 871.499,259.436C868.186,259.49 836.199,259.569 835.498,259.528C832.669,259.363 833.257,257.833 833.206,248.504C833.199,247.153 833.099,162.442 833.313,161.462C833.777,159.332 834.731,159.941 851.502,159.865C875.105,159.758 876.394,159.98 878.525,160.347C882.486,161.029 892.411,162.056 904.146,169.997C904.484,170.226 913.281,177.058 917.615,186.443C921.097,193.984 921.109,195.53 922.559,202.489C923.001,204.608 922.914,207.656 922.939,209.5Z" style="fill:rgb(252,252,251);"/>
        <path d="M508.959,88.492C509.072,90.431 508.891,90.664 509.562,93.486C510.997,99.519 508.547,99.334 503.799,103.87C500.855,106.683 501.004,102.822 500.691,101.448C499.441,95.966 499.297,96.006 498.864,91.459C498.626,88.963 498.19,89.042 498.069,86.542C497.898,83.011 497.796,83.037 497.315,79.523C497.038,77.5 496.626,64.75 497.3,60.47C497.767,57.503 497.738,57.517 497.963,54.531C498.154,51.997 498.639,52.087 498.902,49.549C499.23,46.382 502.69,33.382 507.741,24.633C510.495,19.863 513.837,15.071 519.39,10.366C527.25,3.706 531.378,5.351 532.404,5.76C537.001,7.592 543.321,15.694 546.381,22.556C546.76,23.407 549.978,29.459 552.729,40.435C552.829,40.831 552.754,40.831 553.74,45.44C553.912,46.243 554.765,53.802 554.822,55.485C555.172,65.816 554.407,67.633 554.187,70.468C554.136,71.125 553.922,73.881 552.817,78.579C546.566,105.155 528.806,122.741 524.061,128.101C517.712,135.274 498.105,151.383 489.758,159.756C488.388,161.131 476.995,171.852 469.948,186.702C467.43,192.008 463.219,204.094 463.088,213.486C462.933,224.604 466.307,237.348 476.359,248.623C477.651,250.072 477.761,250.424 483.277,254.796C490.605,260.604 498.177,262.768 499.588,263.17C500.675,263.481 507.134,265.326 513.473,265.807C515.126,265.932 520.952,266.044 523.521,265.657C525.214,265.401 525.22,265.036 526.521,265.446C526.701,265.503 527.493,265.752 527.811,267.418C528.293,269.934 528.163,269.942 528.796,272.433C529.632,275.729 527.734,275.872 523.476,276.09C512.477,276.654 506.938,275.623 505.524,275.36C501.979,274.701 498.287,274.413 488.572,270.343C477.887,265.866 465.222,256.66 458.391,246.574C457.696,245.548 442.188,225.819 444.966,195.553C445.316,191.749 447.304,182.089 449.966,175.689C452.383,169.876 457.226,159.254 470.433,144.44C482.956,130.391 493.252,122.68 508.331,108.321C512.955,103.918 514.126,103.405 519.181,98.19C530.848,86.153 534.509,78.513 537.196,73.351C539.043,69.801 542.726,60.07 543.075,53.484C543.492,45.61 542.868,43.311 542.636,42.459C541.431,38.019 540.817,37.321 539.505,35.496C537.342,32.489 531.457,29.349 524.686,35.703C514.154,45.587 511.607,60.342 510.415,64.473C510.042,65.765 509.87,68.069 509.774,68.562C509.649,69.199 509.415,69.81 509.27,70.443C508.812,72.434 508.946,87.048 508.959,88.492Z" style="fill:rgb(252,252,251);"/>
        <path d="M210.955,192.504C210.928,193.219 211.514,193.308 209.78,199.581C208.239,205.15 203.945,209.536 203.244,210.251C196.127,217.519 188.001,218.522 187.219,219.116C185.423,220.48 187.07,220.822 190.409,225.567C190.74,226.038 193.14,229.448 194.638,231.398C195.087,231.982 194.978,232.059 200.089,238.824C201.18,240.268 201.058,240.332 202.168,241.753C202.646,242.365 206.42,247.824 207.683,249.351C209.027,250.976 208.926,251.156 210.685,253.363C211.468,254.345 212.202,255.616 213.743,257.374C215.278,259.125 213.814,259.514 211.499,259.425C205.047,259.177 199.447,259.712 198.267,258.917C196.647,257.825 195.264,255.306 187.327,244.621C187.294,244.577 180.438,235.093 179.839,234.265C177.088,230.459 174.472,226.53 174.018,225.849C173.491,225.057 172.1,223.363 171.927,223.152C170.503,221.418 170.138,221.791 160.5,221.771C145.782,221.741 145.783,221.943 145.707,221.974C144.882,222.311 144.823,223.385 144.816,223.528C144.804,223.741 144.85,252.942 144.855,255.5C144.858,257.757 145.112,259.318 142.494,259.385C141.855,259.402 141.865,259.354 134.499,259.369C134.269,259.369 132.079,259.373 131.624,259.2C130.172,258.647 130.611,258.073 130.52,242.5C130.486,236.689 130.573,183.282 130.5,173.5C130.413,161.641 130.32,161.586 130.831,160.698C131.399,159.712 131.708,159.871 144.5,159.861C179.975,159.834 179.983,159.852 182.531,160.315C188.49,161.399 197.327,162.659 204.714,171.328C208.571,175.854 209.918,181.613 210.146,182.586C210.603,184.543 211.136,184.504 210.955,192.504Z" style="fill:rgb(252,251,251);"/>
        <path d="M303.496,234.094C278.392,234.197 256.476,233.934 255.424,234.293C253.889,234.817 254.111,235.93 247.14,251.342C243.843,258.633 243.983,259.036 242.464,259.322C241.344,259.533 239.899,259.294 231.501,259.472C227.876,259.549 229.814,257.437 232.413,251.46C234.571,246.499 234.746,246.599 259.967,189.702C260.866,187.675 266.834,174.211 271.214,164.373C273.204,159.903 273.182,159.16 276.495,159.143C285.787,159.096 285.779,159.036 286.563,159.219C288.24,159.61 288.799,161.733 291.855,168.344C292.997,170.814 292.9,170.847 305.834,199.355C309.989,208.514 310.079,208.456 314.216,217.628C322.135,235.181 322.119,235.166 330.149,252.659C332.59,257.977 332.587,258.004 332.532,258.506C332.427,259.466 332.012,259.731 320.501,259.455C317.181,259.375 317.323,258.309 314.744,252.396C314.156,251.05 308.054,237.063 307.267,235.627C306.193,233.669 305.728,234.179 303.496,234.094Z" style="fill:rgb(252,251,251);"/>
        <path d="M59.5,234.103C31.933,234.157 31.714,233.869 30.763,234.776C29.661,235.826 21.408,257.286 19.737,258.776C18.72,259.682 18.533,259.251 8.5,259.443C8.291,259.447 6.314,259.485 5.911,259.08C4.95,258.113 7.045,255.119 9.402,249.457C11.637,244.086 11.997,244.262 23.3,218.411C24.897,214.76 39.183,182.77 39.669,181.576C40.013,180.731 48.535,161.642 49.319,160.37C50.069,159.153 50.496,159.09 60.502,159.115C64.554,159.125 64.104,160.41 66.201,164.633C66.905,166.052 92.838,224.311 101.092,241.685C101.615,242.785 101.56,242.792 107.365,255.562C108.141,257.268 108.567,257.179 108.405,258.481C108.29,259.399 106.664,259.403 106.494,259.403C94.347,259.432 94.186,259.282 93.525,258.479C92.794,257.59 83.443,235.358 82.442,234.572C81.697,233.986 81.579,234.097 59.5,234.103Z" style="fill:rgb(251,251,250);"/>
        <path d="M802.96,227.5C803.259,240.526 802.743,247.178 803.031,255.499C803.139,258.593 802.761,259.397 800.498,259.429C799.784,259.44 792.478,259.544 791.572,259.237C789.811,258.639 790.032,258.263 782.349,248.615C779.037,244.457 779.177,244.371 775.756,240.288C775.248,239.683 774.497,238.498 772.234,235.705C770.216,233.216 770.345,233.137 768.302,230.649C766.807,228.829 740.772,195.302 735.371,188.6C732.073,184.509 732.526,183.848 731.479,183.831C730.166,183.809 730.865,184.659 730.874,196.499C730.878,201.383 730.921,257.03 730.878,257.551C730.726,259.426 729.368,259.486 728.5,259.499C717.991,259.657 717.797,259.447 717.183,258.779C716.506,258.042 716.714,257.88 716.694,221.501C716.67,178.941 716.537,161.523 716.921,160.709C717.303,159.9 718.384,159.845 718.53,159.837C718.55,159.836 726.921,159.814 727.497,159.821C730.429,159.859 730.589,160.182 734.982,166.118C735.573,166.917 738.979,171.192 739.329,171.632C740.146,172.658 740.067,172.707 749.356,184.609C755.458,192.428 766.213,206.481 768.651,209.377C769.443,210.318 773.834,216.335 778.62,222.407C780.075,224.253 779.971,224.319 781.682,226.354C782.858,227.753 782.692,227.852 783.804,229.257C784.436,230.056 784.948,230.335 786.353,232.611C786.443,232.757 787.381,234.277 787.58,234.364C787.838,234.476 788.958,234.356 789.026,234.265C789.119,234.138 788.911,233.957 788.931,233.801C788.949,233.665 789.127,233.58 789.134,233.443C789.173,232.728 788.91,232.737 788.89,224.499C788.878,219.463 788.74,162.199 788.892,161.543C789.299,159.774 789.686,159.835 791.502,159.831C800.661,159.808 800.679,159.648 801.442,159.873C803.096,160.361 802.932,160.751 802.957,162.486C803.013,166.331 802.987,166.327 802.96,227.5Z" style="fill:rgb(252,252,252);"/>
        <path d="M498.965,224.463C499.385,226.421 499.758,229.761 503.909,236.213C504.483,237.105 508.261,241.021 509.74,242.205C511.156,243.34 514.395,244.756 514.083,246.281C513.865,247.347 510.789,246.517 510.513,246.442C509.57,246.187 507.869,246.024 504.497,244.507C498.386,241.759 486.893,232.616 484.777,217.457C484.15,212.964 483.758,212.971 484.232,208.471C484.441,206.49 484.654,206.533 484.839,204.537C485.684,195.395 491.652,185.774 496.67,180.667C508.111,169.021 513.311,170.364 513.915,167.612C514.305,165.833 513.519,164.322 512.915,160.439C512.862,160.104 512.831,159.765 512.751,159.436C512.268,157.443 512.21,157.477 511.919,155.445C511.476,152.354 509.767,150.211 512.598,147.607C517.809,142.813 517.916,142.71 518.482,142.916C519.982,143.463 519.335,144.038 520.711,149.437C520.958,150.405 520.952,151.89 521.407,153.526C522.235,156.504 523.046,163.256 523.603,164.445C524.963,167.346 528.257,162.679 545.399,166.905C552.115,168.56 561.25,173.149 568.154,180.815C577.82,191.548 586.257,210.691 580.12,233.397C577.811,241.937 571.64,252.37 564.154,259.122C558.518,264.206 555.298,265.943 554.443,266.404C554.307,266.477 551.936,267.94 551.534,267.954C549.719,268.017 550.178,267.209 549.834,265.427C548.957,260.874 547.808,258.492 549.054,257.147C549.884,256.251 563.119,247.525 564.074,227.492C564.434,219.954 561.611,210.486 559.257,206.643C556.19,201.636 554.384,199.738 551.622,197.358C544.163,190.93 532.485,187.87 525.466,189.332C521.24,190.213 516.361,190.915 509.554,196.568C506.776,198.876 506.856,198.95 504.201,202.277C503.471,203.192 499.47,209.032 498.896,215.526C498.501,219.988 498.715,219.983 498.965,224.463Z" style="fill:rgb(252,252,251);"/>
        <path d="M907.937,210.502C907.82,218.422 907.053,222.636 902.495,230.497C900.519,233.905 895.046,238.934 893.224,240.094C885.077,245.279 881.644,245.47 873.514,246.628C871.691,246.888 870.906,246.999 850.497,246.828C847.366,246.802 847.78,245.629 847.77,242.501C847.752,236.987 847.555,174.564 847.792,173.579C848.112,172.242 850.259,172.25 850.5,172.251C872.616,172.332 877.971,171.659 888.52,176.46C893.683,178.81 900.225,184.773 903.025,189.788C908.875,200.263 907.935,209.984 907.937,210.502Z"/>
        <path d="M512.507,341.937C515.482,341.857 516.927,342.046 522.663,339.985C523.504,339.683 528.298,337.96 532.211,334.208C537.837,328.814 540.981,319.939 541.107,313.493C541.325,302.373 540.416,301.357 539.99,298.441C539.62,295.913 539.381,295.978 538.988,293.433C538.429,289.803 537.21,285.113 536.975,283.437C536.696,281.456 536.529,281.512 536.179,279.55C534.739,271.464 533.272,265.605 532.991,263.449C532.731,261.455 532.516,261.522 532.152,259.564C531.293,254.944 531.204,254.966 531.135,254.563C530.34,249.928 530.195,249.961 530.128,249.557C529.796,247.536 529.79,247.553 529.303,245.549C528.658,242.891 529.031,242.819 527.262,235.559C527.181,235.23 527.15,234.891 527.102,234.556C526.739,232.022 526.514,232.078 526.123,229.555C525.387,224.801 523.273,214.987 523.077,213.547C522.699,210.756 522.533,210.801 522.246,209.556C522.17,209.225 522.147,208.884 522.101,208.548C521.271,202.469 519.401,198.645 520.52,197.518C521.098,196.935 525.568,195.95 525.569,195.95C528.515,195.425 529.724,194.586 530.107,197.565C530.431,200.097 530.8,200.009 531.115,202.554C531.415,204.983 531.822,204.89 532.105,207.552C532.375,210.093 532.841,209.991 533.092,212.548C533.303,214.696 533.762,214.954 534.073,217.543C534.379,220.097 534.709,220.021 535.048,222.555C535.322,224.605 536.551,229.978 536.671,230.45C537.056,231.958 537.153,233.75 537.334,234.538C538.391,239.118 538.227,239.146 538.319,239.544C539.578,244.987 539.508,244.992 539.632,245.461C540.081,247.148 540.15,248.619 540.37,249.532C541.084,252.486 540.811,252.528 541.575,255.479C542.339,258.429 542.024,258.482 542.72,261.441C542.913,262.263 549.018,294.444 549.033,294.565C549.55,298.574 549.835,298.516 550.128,302.537C550.273,304.522 550.868,306.325 551.015,308.523C551.053,309.087 551.022,315.007 550.724,316.545C549.446,323.136 547.348,341.158 526.595,348.745C520.161,351.097 517.077,350.996 515.454,351.188C509.957,351.835 509.952,351.527 504.457,350.967C503.117,350.83 495.991,350.104 488.575,345.378C475.002,336.73 473.936,326.04 473.437,323.512C472.437,318.438 474.265,311.644 475.837,308.671C484.554,292.186 501.744,295.658 507.641,300.311C514.077,305.389 514.807,310.298 515.672,314.467C515.805,315.107 516.183,316.931 514.835,322.589C514.381,324.491 511.956,329.14 508.545,331.56C501.801,336.345 499.313,335.464 497.616,335.832C497.508,335.855 496.898,336.463 496.864,336.587C496.475,338.023 497.173,337.844 498.492,338.512C503.018,340.804 505.543,342.187 512.507,341.937Z" style="fill:rgb(252,251,251);"/>
        <path d="M617.975,166.503C617.996,167.502 618.016,168.5 618.037,169.499C618.041,182.833 618.045,196.167 618.049,209.501C618.027,210.501 618.005,211.5 617.983,212.5C617.97,217.35 617.344,230.563 624.244,238.708C630.033,245.542 635.609,246.574 639.478,247.583C640.176,247.765 642.422,248.351 648.482,248.087C654.6,247.821 660.796,245.254 663.728,242.792C670.687,236.949 671.793,229.696 672.423,227.477C673.971,222.025 673.242,205.599 673.432,181.5C673.582,162.455 672.996,160.459 674.653,159.962C675.06,159.839 685.544,159.649 686.714,160.093C688.111,160.623 687.737,163.873 687.737,164.499C687.738,202.575 688.013,218.783 687.64,221.516C686.637,228.852 687.074,229.693 685.176,235.399C682.904,242.23 680.136,245.644 679.56,246.543C678.55,248.12 671.733,256.328 660.439,259.276C645.172,263.262 627.499,260.698 617.255,251.791C606.139,242.125 604.732,229.375 604.261,226.541C603.738,223.398 603.657,223.4 603.671,182.5C603.679,160.994 603.309,160.43 604.667,159.95C605.051,159.815 607.273,159.811 607.5,159.811C615.357,159.798 616.891,159.656 617.597,160.422C617.892,160.742 618.101,160.859 617.975,166.503Z" style="fill:rgb(252,252,252);"/>
        <path d="M351.088,186.496C352.427,155.171 396.337,151.219 418.625,168.331C421.093,170.226 421.97,170.708 420.125,173.227C417.082,177.382 417.1,177.386 416.832,177.744C414.929,180.278 414.737,181.854 412.17,179.98C409.813,178.26 409.808,178.291 407.383,176.687C397.394,170.081 376.046,166.572 367.677,178.622C364.304,183.479 365.717,189.381 366.82,191.322C368.595,194.444 370.269,195.293 371.658,196.272C378.29,200.944 392.244,202.652 400.57,205.29C418.353,210.924 421.226,218.81 421.974,220.267C426.973,229.991 424.367,241.221 420.84,246.694C418.466,250.377 417.508,251.429 413.836,253.991C412.884,254.655 407.136,258.664 400.58,259.898C383.554,263.101 370.522,258.42 368.418,257.725C364.174,256.324 356.337,252.33 351.236,247.814C348.283,245.2 347.112,244.688 349.193,242.248C350.709,240.472 352.046,238.587 353.754,236.731C355.662,234.659 356.247,234.796 358.425,236.593C361.535,239.157 370.913,248.273 388.501,248.401C409.007,248.55 411.685,236.736 409.954,229.39C408.844,224.679 404.102,221.707 403.548,221.416C393.067,215.915 384.763,216.373 372.62,212.159C369.387,211.037 357.272,207.077 353.263,197.606C351.199,192.731 351.105,187.401 351.088,186.496Z" style="fill:rgb(252,251,251);"/>
        <path d="M946.037,188.509C946.043,186.09 945.925,184.295 946.413,182.474C948.047,176.387 948.13,175.088 952.081,170.149C963.996,155.256 994.201,154.127 1012.753,168.152C1014.292,169.315 1016.414,170.499 1015.355,172.424C1015.235,172.641 1012.546,176.629 1011.733,177.676C1010.644,179.078 1009.604,180.969 1008.504,181.002C1007.549,181.031 1003.078,176.937 997.561,174.375C986.686,169.324 971.466,168.773 963.796,176.785C961.122,179.578 959.647,184.412 960.288,187.546C961.746,194.683 968.034,197.365 969.646,198.194C972.876,199.853 980.685,201.85 981.571,202.003C983.523,202.339 983.494,202.409 985.432,202.829C995.175,204.945 1003.411,207.001 1012.1,213.951C1016.194,217.226 1022.62,228.377 1017.688,242.57C1016.141,247.02 1011.976,251.641 1010.123,253.041C1001.07,259.882 994.172,260.039 992.473,260.327C977.604,262.845 959.203,259.222 946.215,247.829C943.466,245.417 941.768,244.957 944.223,242.259C946.367,239.902 946.182,239.766 948.314,237.342C950.165,235.238 950.642,234.335 952.747,236.205C963.042,245.353 969.873,246.335 974.473,247.591C977.177,248.33 987.418,249.601 995.528,246.568C1006.138,242.601 1006.916,231.707 1003.017,225.819C1002.289,224.719 1000.051,222.489 999.195,221.966C988.587,215.476 976.796,216.902 960.494,209.511C958.864,208.772 954.909,206.08 954.38,205.652C947.598,200.169 946.991,193.925 946.609,192.47C946.073,190.428 946.141,190.422 946.037,188.509Z" style="fill:rgb(252,251,251);"/>
        <path d="M178.463,209.047C170.24,209.632 170.246,209.271 157.499,209.291C145.717,209.309 145.734,209.078 145.712,209.068C144.24,208.422 145.007,206.622 144.795,179.496C144.763,175.387 144.625,173.81 145.041,173.218C145.86,172.053 146.071,172.283 147.499,172.278C174.768,172.187 176.024,172.331 178.487,172.615C189.12,173.837 192.935,178.55 194.851,182.34C197.563,187.707 199.563,205.602 178.463,209.047Z"/>
        <path d="M295.501,221.95C274.322,221.944 274.346,222.023 272.507,222.018C265.102,221.998 265.11,222.045 262.521,222.043C261.552,222.042 261.412,222.129 260.936,221.292C260.563,220.637 261.25,219.325 262.493,216.497C264.755,211.355 271.216,196.441 271.972,194.696C273.818,190.433 277.354,183.391 279.525,177.518C279.578,177.376 280.13,175.881 281.262,176.767C281.732,177.136 281.367,177.348 284.231,183.62C286.456,188.493 293.325,204.552 298.061,214.695C300.937,220.854 300.823,221.02 300.497,221.498C300.066,222.13 296.605,221.956 295.501,221.95Z"/>
        <path d="M70.499,221.958C69.556,221.99 69.57,222.026 68.5,222.025C66.092,222.022 38.747,221.984 38.41,221.951C36.925,221.808 36.891,220.711 36.885,220.545C36.873,220.149 53.816,182.034 54.793,179.625C55.81,177.118 55.456,176.62 56.508,176.554C57.456,176.494 57.48,177.014 58.182,178.644C58.934,180.39 63.546,191.097 67.716,200.403C74.437,215.404 74.45,215.389 75.019,216.699C76.512,220.135 78.232,222.232 74.492,222.046C72.482,221.945 72.503,221.963 70.499,221.958Z"/>
        <path d="M618.049,209.501C618.314,210.067 618.49,209.929 618.758,210.5C618.792,210.574 619.095,211.22 618.987,211.5C618.816,211.94 618.154,212.06 617.983,212.5C618.005,211.5 618.027,210.501 618.049,209.501Z" style="fill:rgb(92,92,92);"/>
        <path d="M617.975,166.503C618.236,167.192 618.723,166.797 618.989,167.5C619.018,167.577 619.086,167.756 618.731,168.5C618.557,168.866 618.211,169.133 618.037,169.499C618.016,168.5 617.996,167.502 617.975,166.503Z" style="fill:rgb(91,92,92);"/>
    </g>
</svg>
