<?xml version="1.0" encoding="UTF-8" standalone="no"?>
<!DOCTYPE svg PUBLIC "-//W3C//DTD SVG 1.1//EN" "http://www.w3.org/Graphics/SVG/1.1/DTD/svg11.dtd">
<svg width="100%" height="100%" viewBox="0 0 713 713" version="1.1" xmlns="http://www.w3.org/2000/svg" xmlns:xlink="http://www.w3.org/1999/xlink" xml:space="preserve" xmlns:serif="http://www.serif.com/" style="fill-rule:evenodd;clip-rule:evenodd;stroke-linejoin:round;stroke-miterlimit:2;">
    <g id="Background" transform="matrix(1.993164,0,0,1.993164,-696,1)">
        <path d="M508.959,88.492C509.072,90.431 508.891,90.664 509.562,93.486C510.997,99.519 508.547,99.334 503.799,103.87C500.855,106.683 501.004,102.822 500.691,101.448C499.441,95.966 499.297,96.006 498.864,91.459C498.626,88.963 498.19,89.042 498.069,86.542C497.898,83.011 497.796,83.037 497.315,79.523C497.038,77.5 496.626,64.75 497.3,60.47C497.767,57.503 497.738,57.517 497.963,54.531C498.154,51.997 498.639,52.087 498.902,49.549C499.23,46.382 502.69,33.382 507.741,24.633C510.495,19.863 513.837,15.071 519.39,10.366C527.25,3.706 531.378,5.351 532.404,5.76C537.001,7.592 543.321,15.694 546.381,22.556C546.76,23.407 549.978,29.459 552.729,40.435C552.829,40.831 552.754,40.831 553.74,45.44C553.912,46.243 554.765,53.802 554.822,55.485C555.172,65.816 554.407,67.633 554.187,70.468C554.136,71.125 553.922,73.881 552.817,78.579C546.566,105.155 528.806,122.741 524.061,128.101C517.712,135.274 498.105,151.383 489.758,159.756C488.388,161.131 476.995,171.852 469.948,186.702C467.43,192.008 463.219,204.094 463.088,213.486C462.933,224.604 466.307,237.348 476.359,248.623C477.651,250.072 477.761,250.424 483.277,254.796C490.605,260.604 498.177,262.768 499.588,263.17C500.675,263.481 507.134,265.326 513.473,265.807C515.126,265.932 520.952,266.044 523.521,265.657C525.214,265.401 525.22,265.036 526.521,265.446C526.701,265.503 527.493,265.752 527.811,267.418C528.293,269.934 528.163,269.942 528.796,272.433C529.632,275.729 527.734,275.872 523.476,276.09C512.477,276.654 506.938,275.623 505.524,275.36C501.979,274.701 498.287,274.413 488.572,270.343C477.887,265.866 465.222,256.66 458.391,246.574C457.696,245.548 442.188,225.819 444.966,195.553C445.316,191.749 447.304,182.089 449.966,175.689C452.383,169.876 457.226,159.254 470.433,144.44C482.956,130.391 493.252,122.68 508.331,108.321C512.955,103.918 514.126,103.405 519.181,98.19C530.848,86.153 534.509,78.513 537.196,73.351C539.043,69.801 542.726,60.07 543.075,53.484C543.492,45.61 542.868,43.311 542.636,42.459C541.431,38.019 540.817,37.321 539.505,35.496C537.342,32.489 531.457,29.349 524.686,35.703C514.154,45.587 511.607,60.342 510.415,64.473C510.042,65.765 509.87,68.069 509.774,68.562C509.649,69.199 509.415,69.81 509.27,70.443C508.812,72.434 508.946,87.048 508.959,88.492Z" style="fill:white;"/>
        <path d="M498.965,224.463C499.385,226.421 499.758,229.761 503.909,236.213C504.483,237.105 508.261,241.021 509.74,242.205C511.156,243.34 514.395,244.756 514.083,246.281C513.865,247.347 510.789,246.517 510.513,246.442C509.57,246.187 507.869,246.024 504.497,244.507C498.386,241.759 486.893,232.616 484.777,217.457C484.15,212.964 483.758,212.971 484.232,208.471C484.441,206.49 484.654,206.533 484.839,204.537C485.684,195.395 491.652,185.774 496.67,180.667C508.111,169.021 513.311,170.364 513.915,167.612C514.305,165.833 513.519,164.322 512.915,160.439C512.862,160.104 512.831,159.765 512.751,159.436C512.268,157.443 512.21,157.477 511.919,155.445C511.476,152.354 509.767,150.211 512.598,147.607C517.809,142.813 517.916,142.71 518.482,142.916C519.982,143.463 519.335,144.038 520.711,149.437C520.958,150.405 520.952,151.89 521.407,153.526C522.235,156.504 523.046,163.256 523.603,164.445C524.963,167.346 528.257,162.679 545.399,166.905C552.115,168.56 561.25,173.149 568.154,180.815C577.82,191.548 586.257,210.691 580.12,233.397C577.811,241.937 571.64,252.37 564.154,259.122C558.518,264.206 555.298,265.943 554.443,266.404C554.307,266.477 551.936,267.94 551.534,267.954C549.719,268.017 550.178,267.209 549.834,265.427C548.957,260.874 547.808,258.492 549.054,257.147C549.884,256.251 563.119,247.525 564.074,227.492C564.434,219.954 561.611,210.486 559.257,206.643C556.19,201.636 554.384,199.738 551.622,197.358C544.163,190.93 532.485,187.87 525.466,189.332C521.24,190.213 516.361,190.915 509.554,196.568C506.776,198.876 506.856,198.95 504.201,202.277C503.471,203.192 499.47,209.032 498.896,215.526C498.501,219.988 498.715,219.983 498.965,224.463Z" style="fill:white;"/>
        <path d="M512.507,341.937C515.482,341.857 516.927,342.046 522.663,339.985C523.504,339.683 528.298,337.96 532.211,334.208C537.837,328.814 540.981,319.939 541.107,313.493C541.325,302.373 540.416,301.357 539.99,298.441C539.62,295.913 539.381,295.978 538.988,293.433C538.429,289.803 537.21,285.113 536.975,283.437C536.696,281.456 536.529,281.512 536.179,279.55C534.739,271.464 533.272,265.605 532.991,263.449C532.731,261.455 532.516,261.522 532.152,259.564C531.293,254.944 531.204,254.966 531.135,254.563C530.34,249.928 530.195,249.961 530.128,249.557C529.796,247.536 529.79,247.553 529.303,245.549C528.658,242.891 529.031,242.819 527.262,235.559C527.181,235.23 527.15,234.891 527.102,234.556C526.739,232.022 526.514,232.078 526.123,229.555C525.387,224.801 523.273,214.987 523.077,213.547C522.699,210.756 522.533,210.801 522.246,209.556C522.17,209.225 522.147,208.884 522.101,208.548C521.271,202.469 519.401,198.645 520.52,197.518C521.098,196.935 525.568,195.95 525.569,195.95C528.515,195.425 529.724,194.586 530.107,197.565C530.431,200.097 530.8,200.009 531.115,202.554C531.415,204.983 531.822,204.89 532.105,207.552C532.375,210.093 532.841,209.991 533.092,212.548C533.303,214.696 533.762,214.954 534.073,217.543C534.379,220.097 534.709,220.021 535.048,222.555C535.322,224.605 536.551,229.978 536.671,230.45C537.056,231.958 537.153,233.75 537.334,234.538C538.391,239.118 538.227,239.146 538.319,239.544C539.578,244.987 539.508,244.992 539.632,245.461C540.081,247.148 540.15,248.619 540.37,249.532C541.084,252.486 540.811,252.528 541.575,255.479C542.339,258.429 542.024,258.482 542.72,261.441C542.913,262.263 549.018,294.444 549.033,294.565C549.55,298.574 549.835,298.516 550.128,302.537C550.273,304.522 550.868,306.325 551.015,308.523C551.053,309.087 551.022,315.007 550.724,316.545C549.446,323.136 547.348,341.158 526.595,348.745C520.161,351.097 517.077,350.996 515.454,351.188C509.957,351.835 509.952,351.527 504.457,350.967C503.117,350.83 495.991,350.104 488.575,345.378C475.002,336.73 473.936,326.04 473.437,323.512C472.437,318.438 474.265,311.644 475.837,308.671C484.554,292.186 501.744,295.658 507.641,300.311C514.077,305.389 514.807,310.298 515.672,314.467C515.805,315.107 516.183,316.931 514.835,322.589C514.381,324.491 511.956,329.14 508.545,331.56C501.801,336.345 499.313,335.464 497.616,335.832C497.508,335.855 496.898,336.463 496.864,336.587C496.475,338.023 497.173,337.844 498.492,338.512C503.018,340.804 505.543,342.187 512.507,341.937Z" style="fill:white;"/>
    </g>
</svg>
